<svg  version="1.1" id="Layer_1" xmlns="http://www.w3.org/2000/svg" xmlns:xlink="http://www.w3.org/1999/xlink" x="0px"
	y="0px" viewBox="0 0 369.5434083601286 51.97906260432688" style="enable-background:new 0 0 180 24;" xml:space="preserve">
	<style type="text/css">
		.st0 {
			fill: #4A4A4A;
		}
	</style>
	

	 <g id="SvgjsG4621" featurekey="symbolFeature-0"
        transform="matrix(1.113461484155209,0,0,1.113461484155209,0.00008389797681478433,-0.7355488808137551)"
        fill="#4e8b5a">
        <title xmlns="http://www.w3.org/2000/svg">Oil and Petroleum_expand</title>
        <path xmlns="http://www.w3.org/2000/svg"
            d="M47.879,22.031c-.971-5.719-7.225-12.45-7.49-12.734a.774.774,0,0,0-1.1,0c-.266.284-6.52,7.015-7.49,12.734a7.279,7.279,0,0,0,1.56,6.021,8.736,8.736,0,0,0,12.957.027A7.3,7.3,0,0,0,47.879,22.031Zm-2.7,5.08a6.967,6.967,0,0,1-5.3,2.33,7.043,7.043,0,0,1-5.361-2.358,5.725,5.725,0,0,1-1.228-4.8c.737-4.335,5.024-9.581,6.56-11.347,1.537,1.765,5.822,7.007,6.559,11.347A5.751,5.751,0,0,1,45.174,27.111Z">
        </path>
        <path xmlns="http://www.w3.org/2000/svg"
            d="M45.536,21.984a.75.75,0,1,0-1.455.368c.041.162.075.322.1.481a3.313,3.313,0,0,1-.685,2.779,3.9,3.9,0,0,1-1.76,1.157.75.75,0,0,0,.238,1.461.729.729,0,0,0,.237-.038,5.413,5.413,0,0,0,2.432-1.612,4.772,4.772,0,0,0,1.016-4C45.629,22.385,45.587,22.186,45.536,21.984Z">
        </path>
        <path xmlns="http://www.w3.org/2000/svg"
            d="M27.509,11.945,33.17,7.374l7.255-2.3a.751.751,0,0,0,.486-.945l-.953-2.948A.749.749,0,0,0,39.005.7L31.136,3.343a.713.713,0,0,0-.2.106L24.743,8l-.666-.949a.748.748,0,0,0-1.014-.2L7.46,16.658a4.517,4.517,0,0,0-1.407,6.247L7,24.4.881,39.476a.749.749,0,0,0,.427.982l4.12,1.581L4,45.645l-2.268-.8.7-1.759a.75.75,0,0,0-1.4-.553L.053,45.011a.749.749,0,0,0,.446.983L4.182,47.3a.761.761,0,0,0,.251.043.752.752,0,0,0,.7-.474l1.7-4.292.861.33a.749.749,0,0,0,.958-.4l1.343-3.144,9.527,1.265A4.681,4.681,0,0,0,24.7,37.094l2.714-9.271a4.046,4.046,0,0,0-.5-3.362l-3.22-4.9L26.7,15.776a.751.751,0,0,0-1.176-.933l-3.344,4.214a.751.751,0,0,0-.039.879l3.517,5.349a2.547,2.547,0,0,1,.318,2.117l-2.724,9.306a3.2,3.2,0,0,1-3.536,2.429L9.624,37.8a.74.74,0,0,0-.788.448l-1.283,3L2.559,39.331,8.54,24.607a.753.753,0,0,0-.062-.684L7.318,22.1a3.019,3.019,0,0,1,.941-4.173l15-9.428,3.747,5.34a.75.75,0,0,0,1.228-.861Zm4.217-7.217L38.764,2.36l.488,1.509-6.67,2.118a.767.767,0,0,0-.244.131l-5.693,4.6-1.04-1.482Z">
        </path>
        <path xmlns="http://www.w3.org/2000/svg"
            d="M18.934,35.815l-5.464-.826a.75.75,0,0,0-.225,1.483l5.465.827a2.971,2.971,0,0,0,.429.032,2.9,2.9,0,0,0,2.781-2.1l2.294-8.006a1.487,1.487,0,0,0-.247-1.306l-1.8-2.365a.788.788,0,0,0-.622-.3l-5.921.2a.748.748,0,0,0-.664.456L10.2,35.064a.75.75,0,1,0,1.379.588l4.57-10.709,1.944-.065L16.5,29.071a.739.739,0,0,0,0,.524l.994,2.72A.75.75,0,1,0,18.9,31.8l-.9-2.458,1.712-4.519,1.49-.05,1.563,2.042-2.293,8.007A1.4,1.4,0,0,1,18.934,35.815Z">
        </path>
    </g>
	<g id="SvgjsG4622" featurekey="nameFeature-0"
        transform="matrix(0.7792289953814415,0,0,0.7792289953814415,72.40778634250675,-4.937787228311187)"
        fill="#1a702b">
        <path
            d="M7.32 15.52 l6 0 l0 14.48 c0 6.28 -4.88 10.2 -10.8 10.2 c-0.44 0 -0.8 0 -1 -0.04 s-0.48 -0.12 -0.76 -0.16 l0 -5.56 c0.52 0.12 1.08 0.2 1.6 0.2 c3.08 0 4.96 -1.44 4.96 -4.64 l0 -14.48 z M17.560000000000002 15.52 l18.2 0 l0 5.56 l-12.2 0 l0 3.92 l9.8 0 l0 5.56 l-9.8 0 l0 3.88 l12.2 0 l0 5.56 l-18.2 0 l0 -24.48 z M54.760000000000005 15.52 l6 0 l0 24.48 l-6 0 l-9.6 -14.32 l0 14.32 l-6 0 l0 -24.48 l6 0 l9.6 14.32 l0 -14.32 z M87 25 l0 13.6 c-2.84 1.08 -6.4 1.68 -9.44 1.68 c-7.8 0 -13.04 -4.68 -13.04 -12.4 c0 -8.44 6.28 -12.56 13.96 -12.56 c0.52 0 1.08 0 1.72 0.04 c0.6 0.04 1.24 0.12 1.92 0.16 c1.24 0.16 2.48 0.32 3.68 0.68 l0 6.12 c-0.44 -0.2 -0.92 -0.36 -1.48 -0.52 c-0.6 -0.12 -1.2 -0.24 -1.84 -0.36 c-1.28 -0.24 -2.64 -0.32 -3.96 -0.32 c-5.08 0 -8 1.56 -8 6.76 c0 5.08 2.68 6.6 7.24 6.6 c0.48 0 1 -0.04 1.56 -0.08 c0.52 -0.04 1.08 -0.08 1.68 -0.12 l0 -3.72 l-5.2 0 l0 -5.56 l11.2 0 z M90.8 15.52 l18.2 0 l0 5.56 l-12.2 0 l0 3.92 l9.8 0 l0 5.56 l-9.8 0 l0 3.88 l12.2 0 l0 5.56 l-18.2 0 l0 -24.48 z M118.4 21.16 l0 5.84 l5.6 0 c1.84 0 2.92 -1.08 2.92 -2.92 s-1.08 -2.92 -2.92 -2.92 l-5.6 0 z M127.48 30.96 c1.12 1.52 2.24 3.04 3.4 4.52 c1.12 1.48 2.24 3 3.36 4.52 l-7.32 0 c-1.44 -1.92 -2.84 -3.84 -4.24 -5.76 c-1.4 -1.88 -2.84 -3.8 -4.28 -5.72 l0 11.48 l-6 0 l0 -24.48 l11.6 0 c4.56 0 8.44 3.48 8.44 8.08 c0 3.24 -2 6.08 -4.96 7.36 z M136.76000000000002 15.52 l18.2 0 l0 5.56 l-12.2 0 l0 3.92 l9.8 0 l0 5.56 l-9.8 0 l0 3.88 l12.2 0 l0 5.56 l-18.2 0 l0 -24.48 z M167.16000000000003 40 l0 -24.48 l11.6 0 c4.56 0 8.44 3.44 8.44 8.04 c0 4.64 -4 8.04 -8.44 8.04 l-5.6 0 l0 8.4 l-6 0 z M178.76000000000002 21.08 l-5.6 0 l0 4.96 l5.6 0 c1.4 0 2.44 -1.08 2.44 -2.48 s-1.04 -2.48 -2.44 -2.48 z M190.20000000000002 15.52 l18.2 0 l0 5.56 l-12.2 0 l0 3.92 l9.8 0 l0 5.56 l-9.8 0 l0 3.88 l12.2 0 l0 5.56 l-18.2 0 l0 -24.48 z M210.36 15.52 l20.4 0 l0 5.56 l-7.2 0 l0 18.92 l-6 0 l0 -18.92 l-7.2 0 l0 -5.56 z M239.88000000000002 21.16 l0 5.84 l5.6 0 c1.84 0 2.92 -1.08 2.92 -2.92 s-1.08 -2.92 -2.92 -2.92 l-5.6 0 z M248.96000000000004 30.96 c1.12 1.52 2.24 3.04 3.4 4.52 c1.12 1.48 2.24 3 3.36 4.52 l-7.32 0 c-1.44 -1.92 -2.84 -3.84 -4.24 -5.76 c-1.4 -1.88 -2.84 -3.8 -4.28 -5.72 l0 11.48 l-6 0 l0 -24.48 l11.6 0 c4.56 0 8.44 3.48 8.44 8.08 c0 3.24 -2 6.08 -4.96 7.36 z M269.80000000000007 34.64 c4.36 0 6.6 -2.8 6.6 -6.88 c0 -4.32 -2.4 -6.88 -6.6 -6.88 c-4.4 0 -6.6 2.8 -6.6 6.88 c0 4.24 2.44 6.88 6.6 6.88 z M269.80000000000007 40.2 c-7.52 0 -12.6 -5.12 -12.6 -12.44 c0 -7.56 5.32 -12.44 12.6 -12.44 c7.56 0 12.6 5.08 12.6 12.44 c0 7.6 -5.28 12.44 -12.6 12.44 z M304.32000000000005 34.44 l0 5.56 l-18.2 0 l0 -24.48 l6 0 l0 18.92 l12.2 0 z M307.36 15.52 l18.2 0 l0 5.56 l-12.2 0 l0 3.92 l9.8 0 l0 5.56 l-9.8 0 l0 3.88 l12.2 0 l0 5.56 l-18.2 0 l0 -24.48 z M343.8400000000001 15.52 l6 0 l0 14.48 c0 6.36 -4.56 10.2 -10.6 10.2 c-6.2 0 -10.6 -4.08 -10.6 -10.2 l0 -14.48 l6 0 l0 14.48 c0 2.88 1.72 4.64 4.6 4.64 c2.96 0 4.6 -1.72 4.6 -4.64 l0 -14.48 z M360.04 26.52 l0 13.48 l-6 0 l0 -24.48 l6 0 l7.64 13.52 l7.64 -13.52 l6 0 l0 24.48 l-6 0 l0 -13.48 l-4.64 7.96 l-6 0 z">
        </path>
    </g>
    <g id="SvgjsG4623" featurekey="sloganFeature-0"
        transform="matrix(0.5852758412221407,0,0,0.5852758412221407,74.5551899476309,28.851215907245376)"
        fill="#1a702b">
        <path
            d="M7.78 5.380000000000001 c1.6667 0 3.0666 0.47 4.2 1.41 s1.7867 2.1834 1.96 3.73 l-3.04 0 c-0.10666 -0.70666 -0.46 -1.3 -1.06 -1.78 s-1.2867 -0.72 -2.06 -0.72 c-1.2267 0 -2.18 0.44 -2.86 1.32 s-1.02 2.0734 -1.02 3.58 c0 1.4667 0.34334 2.63 1.03 3.49 s1.6367 1.29 2.85 1.29 c0.90666 0 1.64 -0.27666 2.2 -0.83 s0.90666 -1.3433 1.04 -2.37 l3.04 0 c-0.16 1.8133 -0.81 3.24 -1.95 4.28 s-2.5834 1.56 -4.33 1.56 c-2.0934 0 -3.7866 -0.69 -5.08 -2.07 s-1.94 -3.1634 -1.94 -5.35 c0 -2.2134 0.64 -4.0234 1.92 -5.43 s2.98 -2.11 5.1 -2.11 z M22.6 5.380000000000001 c2.1066 0 3.8034 0.7 5.09 2.1 s1.93 3.2134 1.93 5.44 c0 2.1734 -0.64666 3.9534 -1.94 5.34 s-2.9866 2.08 -5.08 2.08 c-2.1066 0 -3.8034 -0.69334 -5.09 -2.08 s-1.93 -3.1666 -1.93 -5.34 c0 -2.2134 0.64666 -4.0234 1.94 -5.43 s2.9866 -2.11 5.08 -2.11 z M18.72 12.92 c0 1.44 0.33998 2.5966 1.02 3.47 s1.6333 1.31 2.86 1.31 c1.2 0 2.1466 -0.43 2.84 -1.29 s1.04 -2.0234 1.04 -3.49 c0 -1.5333 -0.34334 -2.7334 -1.03 -3.6 s-1.6433 -1.3 -2.87 -1.3 c-1.2 0 -2.1434 0.43334 -2.83 1.3 s-1.03 2.0666 -1.03 3.6 z M36.18 5.720000000000001 l3.34 9.82 l0.04 0 l3.16 -9.82 l4.42 0 l0 14.28 l-2.94 0 l0 -10.12 l-0.04 0 l-3.5 10.12 l-2.42 0 l-3.5 -10.02 l-0.04 0 l0 10.02 l-2.94 0 l0 -14.28 l4.42 0 z M56.36 5.720000000000001 c1.52 0 2.72 0.41334 3.6 1.24 s1.32 1.94 1.32 3.34 c0 1.4133 -0.44 2.53 -1.32 3.35 s-2.0734 1.23 -3.58 1.23 l-3.34 0 l0 5.12 l-3.14 0 l0 -14.28 l6.46 0 z M55.540000000000006 12.440000000000001 c0.90666 0 1.5833 -0.16666 2.03 -0.5 s0.67 -0.88 0.67 -1.64 c0 -0.73334 -0.21666 -1.2733 -0.65 -1.62 s-1.11 -0.52 -2.03 -0.52 l-2.52 0 l0 4.28 l2.5 0 z M68.88 5.720000000000001 l5.34 14.28 l-3.26 0 l-1.08 -3.18 l-5.34 0 l-1.12 3.18 l-3.18 0 l5.42 -14.28 l3.22 0 z M67.22 9.24 l-1.86 5.24 l3.7 0 l-1.8 -5.24 l-0.04 0 z M78.58 5.720000000000001 l5.96 9.58 l0.04 0 l0 -9.58 l2.94 0 l0 14.28 l-3.14 0 l-5.94 -9.56 l-0.04 0 l0 9.56 l-2.94 0 l0 -14.28 l3.12 0 z M92.26 5.720000000000001 l3.34 5.64 l3.32 -5.64 l3.5 0 l-5.3 8.8 l0 5.48 l-3.14 0 l0 -5.56 l-5.26 -8.72 l3.54 0 z M112.32000000000001 5.720000000000001 l0 11.64 l6.96 0 l0 2.64 l-10.1 0 l0 -14.28 l3.14 0 z M129.4 5.720000000000001 l0 2.64 l-4.28 0 l0 11.64 l-3.14 0 l0 -11.64 l-4.28 0 l0 -2.64 l11.7 0 z M137.16000000000003 5.720000000000001 c2.0266 0 3.62 0.62666 4.78 1.88 s1.74 2.98 1.74 5.18 c0 2.28 -0.58334 4.0534 -1.75 5.32 s-2.73 1.9 -4.69 1.9 l-6.2 0 l0 -14.28 l6.12 0 z M136.96000000000004 17.36 c1.1333 0 2.0134 -0.37334 2.64 -1.12 s0.94 -1.8067 0.94 -3.18 c0 -1.5733 -0.33666 -2.75 -1.01 -3.53 s-1.71 -1.17 -3.11 -1.17 l-2.24 0 l0 9 l2.78 0 z M148.82000000000002 16.92 l0 3.08 l-3.14 0 l0 -3.08 l3.14 0 z">
        </path>
    </g>
</svg>