<svg version="1.1" id="_x31_" xmlns="http://www.w3.org/2000/svg" xmlns:xlink="http://www.w3.org/1999/xlink" x="0px" y="0px"
	 viewBox="0 0 60 20" style="enable-background:new 0 0 60 20;" xml:space="preserve">
<style type="text/css">
	.st0{fill:#FFFFFF;}
</style>
<path id="_x33_" class="st0" d="M8.17349 22.8084C5.88594 22.8084 4.1253 22.3201 2.89157 21.3434C1.68353 20.341 0.886747 18.7345 0.501205 16.5241L5.0506 15.8687C5.23052 16.9996 5.57751 17.8349 6.09157 18.3747C6.60562 18.9145 7.31245 19.1843 8.21205 19.1843C9.13735 19.1843 9.83133 18.8888 10.294 18.2976C10.7823 17.6807 11.0265 16.794 11.0265 15.6373V4.10964H6.63133V0.485542H15.6145V15.5217C15.6145 17.8092 14.959 19.5956 13.6482 20.8807C12.3373 22.1659 10.5124 22.8084 8.17349 22.8084ZM38.0222 7.46385C38.0222 8.87751 37.7009 10.1498 37.0584 11.2807C36.4158 12.3859 35.4905 13.247 34.2825 13.8639C33.0744 14.455 31.6479 14.7506 30.0029 14.7506H24.5282V22.5H19.9403V0.485542H29.8102C32.4576 0.485542 34.4881 1.10241 35.9017 2.33614C37.3154 3.54418 38.0222 5.25341 38.0222 7.46385ZM33.3957 7.54096C33.3957 5.22771 32.0335 4.07108 29.309 4.07108H24.5282V11.2036H29.4246C30.6841 11.2036 31.6608 10.8952 32.3547 10.2783C33.0487 9.63574 33.3957 8.72329 33.3957 7.54096ZM51.5082 19.1843C54.2841 19.1843 56.2247 17.7835 57.3299 14.9819L61.3395 16.5241C60.4656 18.6574 59.1933 20.2382 57.5227 21.2663C55.852 22.2944 53.8472 22.8084 51.5082 22.8084C47.9612 22.8084 45.2239 21.806 43.2962 19.8012C41.3684 17.7964 40.4046 14.9948 40.4046 11.3964C40.4046 7.77229 41.3299 4.99639 43.1805 3.06867C45.0568 1.11526 47.7684 0.138554 51.3154 0.138554C53.9114 0.138554 56.0191 0.665461 57.6383 1.71928C59.2576 2.74739 60.3885 4.26386 61.0311 6.26867L56.9829 7.38675C56.6488 6.28153 55.9676 5.40763 54.9395 4.76506C53.9371 4.09679 52.7548 3.76265 51.3925 3.76265C49.3106 3.76265 47.7299 4.41807 46.6504 5.72892C45.5709 7.01406 45.0311 8.90321 45.0311 11.3964C45.0311 13.9153 45.5837 15.843 46.6889 17.1795C47.8199 18.5161 49.4263 19.1843 51.5082 19.1843Z"/>

</svg>
